<?xml version="1.0" encoding="utf-8"?>
<svg width="800px" height="800px" viewBox="0 0 24 24" fill="none" xmlns="http://www.w3.org/2000/svg">
<!-- Prestige Icon - Galaxy with Central Star -->
<g id="prestige-icon">
  <!-- Outer ring (galaxy edge) -->
  <circle cx="12" cy="12" r="10" fill="none" stroke="#4a4aff" stroke-width="1.5" opacity="0.6"/>
  <circle cx="12" cy="12" r="8" fill="none" stroke="#7a7aff" stroke-width="1" opacity="0.4" stroke-dasharray="2,3"/>
  
  <!-- Spiral galaxy arms -->
  <path d="M12 4 Q16 8 12 12 Q8 16 12 20" fill="none" stroke="#4a4aff" stroke-width="1.5" opacity="0.8"/>
  <path d="M20 12 Q16 16 12 12 Q8 8 4 12" fill="none" stroke="#4a4aff" stroke-width="1.5" opacity="0.8"/>
  
  <!-- Central star burst -->
  <g transform="translate(12, 12)">
    <!-- Main star -->
    <path d="M0,-4 L1,-1 L4,0 L1,1 L0,4 L-1,1 L-4,0 L-1,-1 Z" fill="#ffeb3b" stroke="#ffc107" stroke-width="0.5"/>
    <!-- Inner glow -->
    <circle r="2" fill="#ffeb3b" opacity="0.3"/>
  </g>
  
  <!-- Small stars around -->
  <circle cx="6" cy="6" r="0.8" fill="#fff" opacity="0.9"/>
  <circle cx="18" cy="6" r="0.8" fill="#fff" opacity="0.9"/>
  <circle cx="18" cy="18" r="0.8" fill="#fff" opacity="0.9"/>
  <circle cx="6" cy="18" r="0.8" fill="#fff" opacity="0.9"/>
  
  <!-- Smaller stars -->
  <circle cx="9" cy="4" r="0.5" fill="#fff" opacity="0.6"/>
  <circle cx="15" cy="4" r="0.5" fill="#fff" opacity="0.6"/>
  <circle cx="20" cy="9" r="0.5" fill="#fff" opacity="0.6"/>
  <circle cx="20" cy="15" r="0.5" fill="#fff" opacity="0.6"/>
  <circle cx="15" cy="20" r="0.5" fill="#fff" opacity="0.6"/>
  <circle cx="9" cy="20" r="0.5" fill="#fff" opacity="0.6"/>
  <circle cx="4" cy="15" r="0.5" fill="#fff" opacity="0.6"/>
  <circle cx="4" cy="9" r="0.5" fill="#fff" opacity="0.6"/>
  
  <!-- Energy waves -->
  <circle cx="12" cy="12" r="5" fill="none" stroke="url(#prestige-gradient)" stroke-width="0.5" opacity="0.5"/>
  <circle cx="12" cy="12" r="6.5" fill="none" stroke="url(#prestige-gradient)" stroke-width="0.3" opacity="0.3"/>
</g>

<defs>
  <radialGradient id="prestige-gradient">
    <stop offset="0%" style="stop-color:#ffeb3b;stop-opacity:1" />
    <stop offset="50%" style="stop-color:#7a7aff;stop-opacity:0.8" />
    <stop offset="100%" style="stop-color:#4a4aff;stop-opacity:0.4" />
  </radialGradient>
</defs>
</svg>